<svg xmlns="http://www.w3.org/2000/svg" xmlns:xlink="http://www.w3.org/1999/xlink" width="500" zoomAndPan="magnify" viewBox="0 0 375 374.999991" height="500" preserveAspectRatio="xMidYMid meet" version="1.0"><defs><g/><clipPath id="19554b1f71"><path d="M 58 66.558594 L 329 66.558594 L 329 308 L 58 308 Z M 58 66.558594 " clip-rule="nonzero"/></clipPath><clipPath id="559d94a7c4"><path d="M 51.027344 134.523438 L 68.277344 134.523438 L 68.277344 152.410156 L 51.027344 152.410156 Z M 51.027344 134.523438 " clip-rule="nonzero"/></clipPath><clipPath id="985bf9d7c8"><path d="M 313.140625 163.753906 L 330.390625 163.753906 L 330.390625 181.640625 L 313.140625 181.640625 Z M 313.140625 163.753906 " clip-rule="nonzero"/></clipPath><clipPath id="112f0ba512"><path d="M 337.5 143.570312 L 350.25 143.570312 L 350.25 154.820312 L 337.5 154.820312 Z M 337.5 143.570312 " clip-rule="nonzero"/></clipPath><clipPath id="8a38c49e09"><path d="M 331.125 195.210938 L 343.875 195.210938 L 343.875 206.460938 L 331.125 206.460938 Z M 331.125 195.210938 " clip-rule="nonzero"/></clipPath><clipPath id="54216d39fa"><path d="M 38.28125 170.539062 L 51 170.539062 L 51 181.789062 L 38.28125 181.789062 Z M 38.28125 170.539062 " clip-rule="nonzero"/></clipPath><clipPath id="7985b4507c"><path d="M 62.332031 182.769531 L 79.582031 182.769531 L 79.582031 200.65625 L 62.332031 200.65625 Z M 62.332031 182.769531 " clip-rule="nonzero"/></clipPath></defs><rect x="-37.5" width="450" fill="#ffffff" y="-37.499999" height="449.999989" fill-opacity="1"/><rect x="-37.5" width="450" fill="#fca6d3" y="-37.499999" height="449.999989" fill-opacity="1"/><g clip-path="url(#19554b1f71)"><path fill="#f57fb4" d="M 328.476562 140.648438 C 328.476562 99.582031 295.183594 66.292969 254.125 66.292969 C 229.199219 66.292969 207.207031 78.597656 193.710938 97.40625 C 180.214844 78.597656 158.21875 66.292969 133.300781 66.292969 C 92.234375 66.292969 58.945312 99.574219 58.945312 140.648438 C 58.945312 146.464844 59.683594 152.101562 60.949219 157.535156 C 71.273438 221.679688 142.59375 289.355469 193.710938 307.933594 C 244.820312 289.355469 316.148438 221.679688 326.457031 157.542969 C 327.734375 152.109375 328.476562 146.472656 328.476562 140.648438 Z M 328.476562 140.648438 " fill-opacity="1" fill-rule="nonzero"/></g><path fill="#ef4f99" d="M 294.851562 152.246094 C 294.851562 121.421875 269.875 96.441406 239.054688 96.441406 C 220.355469 96.441406 203.84375 105.671875 193.710938 119.792969 C 183.582031 105.671875 167.074219 96.441406 148.371094 96.441406 C 117.554688 96.441406 92.566406 121.421875 92.566406 152.246094 C 92.566406 156.609375 93.125 160.84375 94.066406 164.914062 C 101.820312 213.054688 155.34375 263.855469 193.710938 277.792969 C 232.070312 263.847656 285.601562 213.054688 293.347656 164.917969 C 294.304688 160.84375 294.851562 156.609375 294.851562 152.246094 Z M 294.851562 152.246094 " fill-opacity="1" fill-rule="nonzero"/><path fill="#e8297b" d="M 262.964844 163.238281 C 262.964844 142.132812 245.859375 125.023438 224.761719 125.023438 C 211.953125 125.023438 200.648438 131.34375 193.710938 141.019531 C 186.777344 131.34375 175.46875 125.023438 162.660156 125.023438 C 141.554688 125.023438 124.441406 142.132812 124.441406 163.238281 C 124.441406 166.230469 124.816406 169.125 125.464844 171.914062 C 130.777344 204.886719 167.429688 239.667969 193.703125 249.214844 C 219.960938 239.660156 256.636719 204.878906 261.933594 171.914062 C 262.597656 169.125 262.964844 166.222656 262.964844 163.238281 Z M 262.964844 163.238281 " fill-opacity="1" fill-rule="nonzero"/><g fill="#f57fb4" fill-opacity="0.302"><g transform="translate(76.689938, 203.698957)"><g><path d="M 28.144531 0.078125 C 31.734375 0.0273438 34.097656 -2.199219 35.773438 -6.28125 C 39.636719 -15.582031 42.769531 -24.804688 45.304688 -34.089844 C 45.871094 -36.292969 46.984375 -37.636719 47.96875 -38.648438 C 49.082031 -39.796875 49.996094 -41.003906 49.972656 -42.867188 C 49.9375 -45.328125 48.578125 -47.503906 44.253906 -47.445312 L 39 -47.375 C 34.542969 -47.3125 32.574219 -45.222656 32.613281 -42.496094 C 32.640625 -40.5 33.71875 -39.382812 34.597656 -38.597656 C 35.808594 -37.550781 36.15625 -36.355469 36.050781 -34.359375 C 35.832031 -31.03125 34.308594 -25.621094 32.492188 -22.269531 C 31.066406 -19.65625 29.871094 -19.503906 28.300781 -22.277344 C 26.394531 -25.578125 24.65625 -30.875 24.34375 -34.199219 C 24.1875 -35.859375 24.566406 -37.460938 25.484375 -38.472656 C 26.402344 -39.484375 26.984375 -40.621094 26.960938 -42.417969 C 26.925781 -44.878906 25.234375 -46.984375 19.3125 -46.902344 L 7.671875 -46.742188 C 0.953125 -46.648438 -0.347656 -44.636719 -0.316406 -42.175781 C -0.289062 -40.3125 0.660156 -39.128906 1.871094 -38.015625 C 2.949219 -36.964844 4.039062 -35.25 4.664062 -33.195312 C 7.453125 -24.121094 10.96875 -15.054688 15.085938 -5.996094 C 16.9375 -1.964844 19.695312 0.195312 23.886719 0.136719 Z M 28.144531 0.078125 "/></g></g></g><g fill="#f57fb4" fill-opacity="0.302"><g transform="translate(127.507353, 202.999323)"><g><path d="M 10.941406 -36.410156 C 16.996094 -36.492188 20.878906 -39.40625 20.820312 -43.730469 C 20.761719 -47.921875 16.800781 -50.59375 10.746094 -50.511719 C 4.496094 -50.425781 0.410156 -47.640625 0.464844 -43.449219 C 0.527344 -39.125 4.6875 -36.324219 10.941406 -36.410156 Z M 9.320312 0.335938 L 15.304688 0.253906 C 21.691406 0.167969 23.808594 -0.527344 23.761719 -4.054688 C 23.738281 -5.648438 23.125 -6.773438 21.917969 -7.621094 C 20.839844 -8.402344 20.476562 -10.726562 20.414062 -15.25 L 20.207031 -30.347656 C 20.160156 -33.808594 17.886719 -34.507812 15.027344 -34.46875 C 10.304688 -34.40625 5.917969 -34.078125 3.144531 -32.441406 C 1.5625 -31.488281 0.246094 -30.339844 0.28125 -28.011719 C 0.304688 -26.148438 1.113281 -25.363281 2.324219 -24.449219 C 3.265625 -23.730469 3.691406 -21.804688 3.714844 -20.011719 L 3.785156 -14.953125 C 3.847656 -10.5 3.546875 -8.164062 2.492188 -7.351562 C 1.308594 -6.472656 0.726562 -5.332031 0.746094 -3.734375 C 0.796875 -0.210938 2.867188 0.425781 9.320312 0.335938 Z M 9.320312 0.335938 "/></g></g></g><g fill="#f57fb4" fill-opacity="0.302"><g transform="translate(151.984849, 202.662327)"><g><path d="M 24.625 0.527344 C 35.796875 0.371094 42.808594 -7.507812 42.65625 -18.617188 C 42.507812 -29.324219 37.769531 -35.25 30.121094 -35.144531 C 22.070312 -35.03125 19.976562 -27.683594 19.113281 -27.671875 C 18.714844 -27.667969 18.566406 -28.730469 18.542969 -30.394531 L 18.367188 -43.03125 C 18.320312 -46.488281 16.050781 -47.191406 13.1875 -47.152344 C 8.464844 -47.085938 4.078125 -46.761719 1.308594 -45.125 C -0.277344 -44.171875 -1.589844 -43.023438 -1.558594 -40.695312 C -1.53125 -38.832031 -0.722656 -38.042969 0.488281 -37.128906 C 1.429688 -36.410156 1.84375 -35.21875 1.878906 -32.625 L 2.179688 -15.730469 C 2.25 -10.476562 1.960938 -7.34375 1.941406 -3.820312 C 1.910156 -1.289062 3.867188 0.679688 6.996094 0.636719 C 11.917969 0.566406 12.808594 -2.371094 14.269531 -2.390625 C 15.667969 -2.410156 18.769531 0.605469 24.625 0.527344 Z M 22.574219 -8.160156 C 20.3125 -8.128906 18.8125 -10.835938 18.710938 -18.019531 L 18.699219 -19.085938 C 18.652344 -22.34375 19.898438 -23.757812 21.226562 -23.777344 C 24.355469 -23.820312 25.414062 -19.3125 25.496094 -13.257812 C 25.558594 -8.933594 23.769531 -8.179688 22.574219 -8.160156 Z M 22.574219 -8.160156 "/></g></g></g><g fill="#f57fb4" fill-opacity="0.302"><g transform="translate(195.552133, 202.062509)"><g><path d="M 9.320312 0.335938 L 15.304688 0.253906 C 21.691406 0.167969 23.808594 -0.527344 23.761719 -4.054688 C 23.738281 -5.648438 23.125 -6.773438 21.917969 -7.621094 C 20.839844 -8.402344 20.476562 -10.726562 20.414062 -15.25 L 20.40625 -15.847656 C 20.359375 -19.175781 20.976562 -22.710938 22.109375 -22.726562 C 22.507812 -22.730469 22.839844 -22.601562 22.851562 -21.9375 C 22.898438 -18.34375 25.925781 -16.058594 29.582031 -16.109375 C 33.707031 -16.164062 36.382812 -19.992188 36.304688 -25.714844 C 36.207031 -32.699219 31.847656 -35.167969 27.726562 -35.109375 C 21.671875 -35.027344 19.511719 -27.679688 18.714844 -27.667969 C 18.378906 -27.664062 18.304688 -28.261719 18.296875 -28.792969 L 18.269531 -30.988281 C 18.21875 -34.445312 16.558594 -34.492188 15.027344 -34.46875 C 10.304688 -34.40625 5.917969 -34.078125 3.144531 -32.441406 C 1.5625 -31.488281 0.246094 -30.339844 0.28125 -28.011719 C 0.304688 -26.148438 1.113281 -25.363281 2.324219 -24.449219 C 3.265625 -23.730469 3.691406 -21.804688 3.714844 -20.011719 L 3.785156 -14.953125 C 3.847656 -10.5 3.546875 -8.164062 2.492188 -7.351562 C 1.308594 -6.472656 0.726562 -5.332031 0.746094 -3.734375 C 0.796875 -0.210938 2.867188 0.425781 9.320312 0.335938 Z M 9.320312 0.335938 "/></g></g></g><g fill="#f57fb4" fill-opacity="0.302"><g transform="translate(232.201857, 201.557931)"><g><path d="M 12.515625 0.691406 C 22.160156 0.558594 23.8125 -5.183594 24.875 -5.199219 C 25.144531 -5.203125 25.753906 -4.214844 25.960938 -3.75 C 27.191406 -1.503906 29.675781 0.191406 34 0.128906 C 39.253906 0.0585938 42.273438 -2.976562 42.222656 -6.570312 C 42.207031 -7.632812 41.933594 -8.292969 41.527344 -8.820312 C 41.050781 -9.414062 40.316406 -9.734375 39.773438 -10.394531 C 39.371094 -10.789062 39.027344 -11.382812 38.949219 -12.378906 L 37.957031 -21.480469 C 37.121094 -29.183594 33.644531 -35.191406 20.875 -35.015625 C 11.761719 -34.890625 2.425781 -31.5 2.507812 -25.582031 C 2.550781 -22.65625 5.4375 -20.699219 7.699219 -20.730469 C 11.554688 -20.78125 13.464844 -22.40625 14.695312 -24.683594 C 15.539062 -26.226562 16.261719 -26.902344 17.992188 -26.925781 C 19.789062 -26.949219 20.867188 -25.902344 21.238281 -23.179688 L 21.308594 -22.648438 C 21.605469 -20.65625 18.804688 -20.949219 15.949219 -20.644531 C 7.578125 -19.730469 0.0976562 -17.097656 0.195312 -9.847656 C 0.261719 -5.058594 2.871094 0.824219 12.515625 0.691406 Z M 20.386719 -7.664062 C 19.121094 -7.648438 16.976562 -8.949219 16.925781 -12.472656 C 16.894531 -14.734375 17.402344 -16.671875 19.863281 -16.707031 C 21.125 -16.722656 22.132812 -16.003906 22.355469 -14.277344 L 22.796875 -11.292969 C 23.089844 -9.300781 21.914062 -7.6875 20.386719 -7.664062 Z M 20.386719 -7.664062 "/></g></g></g><g fill="#f57fb4" fill-opacity="0.302"><g transform="translate(274.50536, 200.975513)"><g><path d="M 17.574219 0.621094 C 28.082031 0.476562 35.820312 -2.820312 35.707031 -10.9375 C 35.632812 -16.390625 33.191406 -19.75 23.972656 -22.550781 C 20.164062 -23.695312 19.691406 -24.222656 19.675781 -25.351562 C 19.671875 -25.75 20.058594 -26.488281 20.859375 -26.5 C 22.253906 -26.519531 23.199219 -25.667969 24.34375 -24.683594 C 25.621094 -23.570312 27.105469 -22.261719 29.699219 -22.296875 C 32.625 -22.335938 34.058594 -24.617188 34.027344 -26.878906 C 34 -28.808594 33.113281 -30.394531 31.496094 -31.703125 C 30.019531 -32.8125 28.078125 -33.652344 25.675781 -34.21875 C 23.339844 -34.785156 20.609375 -35.011719 17.746094 -34.972656 C 10.230469 -34.871094 1.101562 -31.085938 1.214844 -23.035156 C 1.285156 -17.714844 4.726562 -14.234375 12.078125 -11.875 C 15.484375 -10.792969 16.089844 -10.335938 16.105469 -9.269531 C 16.117188 -8.339844 15.527344 -7.863281 14.394531 -7.847656 C 12 -7.816406 10.785156 -8.996094 9.570312 -10.246094 C 8.222656 -11.621094 6.738281 -13 3.613281 -12.957031 C 1.550781 -12.929688 -0.152344 -11.109375 -0.117188 -8.449219 C -0.0820312 -5.921875 1.277344 -3.941406 3.492188 -2.507812 C 4.96875 -1.53125 6.773438 -0.824219 8.777344 -0.320312 C 11.449219 0.375 14.511719 0.664062 17.574219 0.621094 Z M 17.574219 0.621094 "/></g></g></g><g fill="#f57fb4" fill-opacity="0.502"><g transform="translate(73.709728, 200.799695)"><g><path d="M 28.144531 0.078125 C 31.734375 0.0273438 34.097656 -2.199219 35.773438 -6.28125 C 39.636719 -15.582031 42.769531 -24.804688 45.304688 -34.089844 C 45.871094 -36.292969 46.984375 -37.636719 47.96875 -38.648438 C 49.082031 -39.796875 49.996094 -41.003906 49.972656 -42.867188 C 49.9375 -45.328125 48.578125 -47.503906 44.253906 -47.445312 L 39 -47.375 C 34.542969 -47.3125 32.574219 -45.222656 32.613281 -42.496094 C 32.640625 -40.5 33.71875 -39.382812 34.597656 -38.597656 C 35.808594 -37.550781 36.15625 -36.355469 36.050781 -34.359375 C 35.832031 -31.03125 34.308594 -25.621094 32.492188 -22.269531 C 31.066406 -19.65625 29.871094 -19.503906 28.300781 -22.277344 C 26.394531 -25.578125 24.65625 -30.875 24.34375 -34.199219 C 24.1875 -35.859375 24.566406 -37.460938 25.484375 -38.472656 C 26.402344 -39.484375 26.984375 -40.621094 26.960938 -42.417969 C 26.925781 -44.878906 25.234375 -46.984375 19.3125 -46.902344 L 7.671875 -46.742188 C 0.953125 -46.648438 -0.347656 -44.636719 -0.316406 -42.175781 C -0.289062 -40.3125 0.660156 -39.128906 1.871094 -38.015625 C 2.949219 -36.964844 4.039062 -35.25 4.664062 -33.195312 C 7.453125 -24.121094 10.96875 -15.054688 15.085938 -5.996094 C 16.9375 -1.964844 19.695312 0.195312 23.886719 0.136719 Z M 28.144531 0.078125 "/></g></g></g><g fill="#f57fb4" fill-opacity="0.502"><g transform="translate(124.527143, 200.100061)"><g><path d="M 10.941406 -36.410156 C 16.996094 -36.492188 20.878906 -39.40625 20.820312 -43.730469 C 20.761719 -47.921875 16.800781 -50.59375 10.746094 -50.511719 C 4.496094 -50.425781 0.410156 -47.640625 0.464844 -43.449219 C 0.527344 -39.125 4.6875 -36.324219 10.941406 -36.410156 Z M 9.320312 0.335938 L 15.304688 0.253906 C 21.691406 0.167969 23.808594 -0.527344 23.761719 -4.054688 C 23.738281 -5.648438 23.125 -6.773438 21.917969 -7.621094 C 20.839844 -8.402344 20.476562 -10.726562 20.414062 -15.25 L 20.207031 -30.347656 C 20.160156 -33.808594 17.886719 -34.507812 15.027344 -34.46875 C 10.304688 -34.40625 5.917969 -34.078125 3.144531 -32.441406 C 1.5625 -31.488281 0.246094 -30.339844 0.28125 -28.011719 C 0.304688 -26.148438 1.113281 -25.363281 2.324219 -24.449219 C 3.265625 -23.730469 3.691406 -21.804688 3.714844 -20.011719 L 3.785156 -14.953125 C 3.847656 -10.5 3.546875 -8.164062 2.492188 -7.351562 C 1.308594 -6.472656 0.726562 -5.332031 0.746094 -3.734375 C 0.796875 -0.210938 2.867188 0.425781 9.320312 0.335938 Z M 9.320312 0.335938 "/></g></g></g><g fill="#f57fb4" fill-opacity="0.502"><g transform="translate(149.004639, 199.763064)"><g><path d="M 24.625 0.527344 C 35.796875 0.371094 42.808594 -7.507812 42.65625 -18.617188 C 42.507812 -29.324219 37.769531 -35.25 30.121094 -35.144531 C 22.070312 -35.03125 19.976562 -27.683594 19.113281 -27.671875 C 18.714844 -27.667969 18.566406 -28.730469 18.542969 -30.394531 L 18.367188 -43.03125 C 18.320312 -46.488281 16.050781 -47.191406 13.1875 -47.152344 C 8.464844 -47.085938 4.078125 -46.761719 1.308594 -45.125 C -0.277344 -44.171875 -1.589844 -43.023438 -1.558594 -40.695312 C -1.53125 -38.832031 -0.722656 -38.042969 0.488281 -37.128906 C 1.429688 -36.410156 1.84375 -35.21875 1.878906 -32.625 L 2.179688 -15.730469 C 2.25 -10.476562 1.960938 -7.34375 1.941406 -3.820312 C 1.910156 -1.289062 3.867188 0.679688 6.996094 0.636719 C 11.917969 0.566406 12.808594 -2.371094 14.269531 -2.390625 C 15.667969 -2.410156 18.769531 0.605469 24.625 0.527344 Z M 22.574219 -8.160156 C 20.3125 -8.128906 18.8125 -10.835938 18.710938 -18.019531 L 18.699219 -19.085938 C 18.652344 -22.34375 19.898438 -23.757812 21.226562 -23.777344 C 24.355469 -23.820312 25.414062 -19.3125 25.496094 -13.257812 C 25.558594 -8.933594 23.769531 -8.179688 22.574219 -8.160156 Z M 22.574219 -8.160156 "/></g></g></g><g fill="#f57fb4" fill-opacity="0.502"><g transform="translate(192.571923, 199.163247)"><g><path d="M 9.320312 0.335938 L 15.304688 0.253906 C 21.691406 0.167969 23.808594 -0.527344 23.761719 -4.054688 C 23.738281 -5.648438 23.125 -6.773438 21.917969 -7.621094 C 20.839844 -8.402344 20.476562 -10.726562 20.414062 -15.25 L 20.40625 -15.847656 C 20.359375 -19.175781 20.976562 -22.710938 22.109375 -22.726562 C 22.507812 -22.730469 22.839844 -22.601562 22.851562 -21.9375 C 22.898438 -18.34375 25.925781 -16.058594 29.582031 -16.109375 C 33.707031 -16.164062 36.382812 -19.992188 36.304688 -25.714844 C 36.207031 -32.699219 31.847656 -35.167969 27.726562 -35.109375 C 21.671875 -35.027344 19.511719 -27.679688 18.714844 -27.667969 C 18.378906 -27.664062 18.304688 -28.261719 18.296875 -28.792969 L 18.269531 -30.988281 C 18.21875 -34.445312 16.558594 -34.492188 15.027344 -34.46875 C 10.304688 -34.40625 5.917969 -34.078125 3.144531 -32.441406 C 1.5625 -31.488281 0.246094 -30.339844 0.28125 -28.011719 C 0.304688 -26.148438 1.113281 -25.363281 2.324219 -24.449219 C 3.265625 -23.730469 3.691406 -21.804688 3.714844 -20.011719 L 3.785156 -14.953125 C 3.847656 -10.5 3.546875 -8.164062 2.492188 -7.351562 C 1.308594 -6.472656 0.726562 -5.332031 0.746094 -3.734375 C 0.796875 -0.210938 2.867188 0.425781 9.320312 0.335938 Z M 9.320312 0.335938 "/></g></g></g><g fill="#f57fb4" fill-opacity="0.502"><g transform="translate(229.221646, 198.658668)"><g><path d="M 12.515625 0.691406 C 22.160156 0.558594 23.8125 -5.183594 24.875 -5.199219 C 25.144531 -5.203125 25.753906 -4.214844 25.960938 -3.75 C 27.191406 -1.503906 29.675781 0.191406 34 0.128906 C 39.253906 0.0585938 42.273438 -2.976562 42.222656 -6.570312 C 42.207031 -7.632812 41.933594 -8.292969 41.527344 -8.820312 C 41.050781 -9.414062 40.316406 -9.734375 39.773438 -10.394531 C 39.371094 -10.789062 39.027344 -11.382812 38.949219 -12.378906 L 37.957031 -21.480469 C 37.121094 -29.183594 33.644531 -35.191406 20.875 -35.015625 C 11.761719 -34.890625 2.425781 -31.5 2.507812 -25.582031 C 2.550781 -22.65625 5.4375 -20.699219 7.699219 -20.730469 C 11.554688 -20.78125 13.464844 -22.40625 14.695312 -24.683594 C 15.539062 -26.226562 16.261719 -26.902344 17.992188 -26.925781 C 19.789062 -26.949219 20.867188 -25.902344 21.238281 -23.179688 L 21.308594 -22.648438 C 21.605469 -20.65625 18.804688 -20.949219 15.949219 -20.644531 C 7.578125 -19.730469 0.0976562 -17.097656 0.195312 -9.847656 C 0.261719 -5.058594 2.871094 0.824219 12.515625 0.691406 Z M 20.386719 -7.664062 C 19.121094 -7.648438 16.976562 -8.949219 16.925781 -12.472656 C 16.894531 -14.734375 17.402344 -16.671875 19.863281 -16.707031 C 21.125 -16.722656 22.132812 -16.003906 22.355469 -14.277344 L 22.796875 -11.292969 C 23.089844 -9.300781 21.914062 -7.6875 20.386719 -7.664062 Z M 20.386719 -7.664062 "/></g></g></g><g fill="#f57fb4" fill-opacity="0.502"><g transform="translate(271.52515, 198.07625)"><g><path d="M 17.574219 0.621094 C 28.082031 0.476562 35.820312 -2.820312 35.707031 -10.9375 C 35.632812 -16.390625 33.191406 -19.75 23.972656 -22.550781 C 20.164062 -23.695312 19.691406 -24.222656 19.675781 -25.351562 C 19.671875 -25.75 20.058594 -26.488281 20.859375 -26.5 C 22.253906 -26.519531 23.199219 -25.667969 24.34375 -24.683594 C 25.621094 -23.570312 27.105469 -22.261719 29.699219 -22.296875 C 32.625 -22.335938 34.058594 -24.617188 34.027344 -26.878906 C 34 -28.808594 33.113281 -30.394531 31.496094 -31.703125 C 30.019531 -32.8125 28.078125 -33.652344 25.675781 -34.21875 C 23.339844 -34.785156 20.609375 -35.011719 17.746094 -34.972656 C 10.230469 -34.871094 1.101562 -31.085938 1.214844 -23.035156 C 1.285156 -17.714844 4.726562 -14.234375 12.078125 -11.875 C 15.484375 -10.792969 16.089844 -10.335938 16.105469 -9.269531 C 16.117188 -8.339844 15.527344 -7.863281 14.394531 -7.847656 C 12 -7.816406 10.785156 -8.996094 9.570312 -10.246094 C 8.222656 -11.621094 6.738281 -13 3.613281 -12.957031 C 1.550781 -12.929688 -0.152344 -11.109375 -0.117188 -8.449219 C -0.0820312 -5.921875 1.277344 -3.941406 3.492188 -2.507812 C 4.96875 -1.53125 6.773438 -0.824219 8.777344 -0.320312 C 11.449219 0.375 14.511719 0.664062 17.574219 0.621094 Z M 17.574219 0.621094 "/></g></g></g><g fill="#f57fb4" fill-opacity="1"><g transform="translate(70.729518, 197.900433)"><g><path d="M 28.144531 0.078125 C 31.734375 0.0273438 34.097656 -2.199219 35.773438 -6.28125 C 39.636719 -15.582031 42.769531 -24.804688 45.304688 -34.089844 C 45.871094 -36.292969 46.984375 -37.636719 47.96875 -38.648438 C 49.082031 -39.796875 49.996094 -41.003906 49.972656 -42.867188 C 49.9375 -45.328125 48.578125 -47.503906 44.253906 -47.445312 L 39 -47.375 C 34.542969 -47.3125 32.574219 -45.222656 32.613281 -42.496094 C 32.640625 -40.5 33.71875 -39.382812 34.597656 -38.597656 C 35.808594 -37.550781 36.15625 -36.355469 36.050781 -34.359375 C 35.832031 -31.03125 34.308594 -25.621094 32.492188 -22.269531 C 31.066406 -19.65625 29.871094 -19.503906 28.300781 -22.277344 C 26.394531 -25.578125 24.65625 -30.875 24.34375 -34.199219 C 24.1875 -35.859375 24.566406 -37.460938 25.484375 -38.472656 C 26.402344 -39.484375 26.984375 -40.621094 26.960938 -42.417969 C 26.925781 -44.878906 25.234375 -46.984375 19.3125 -46.902344 L 7.671875 -46.742188 C 0.953125 -46.648438 -0.347656 -44.636719 -0.316406 -42.175781 C -0.289062 -40.3125 0.660156 -39.128906 1.871094 -38.015625 C 2.949219 -36.964844 4.039062 -35.25 4.664062 -33.195312 C 7.453125 -24.121094 10.96875 -15.054688 15.085938 -5.996094 C 16.9375 -1.964844 19.695312 0.195312 23.886719 0.136719 Z M 28.144531 0.078125 "/></g></g></g><g fill="#f57fb4" fill-opacity="1"><g transform="translate(121.546933, 197.200799)"><g><path d="M 10.941406 -36.410156 C 16.996094 -36.492188 20.878906 -39.40625 20.820312 -43.730469 C 20.761719 -47.921875 16.800781 -50.59375 10.746094 -50.511719 C 4.496094 -50.425781 0.410156 -47.640625 0.464844 -43.449219 C 0.527344 -39.125 4.6875 -36.324219 10.941406 -36.410156 Z M 9.320312 0.335938 L 15.304688 0.253906 C 21.691406 0.167969 23.808594 -0.527344 23.761719 -4.054688 C 23.738281 -5.648438 23.125 -6.773438 21.917969 -7.621094 C 20.839844 -8.402344 20.476562 -10.726562 20.414062 -15.25 L 20.207031 -30.347656 C 20.160156 -33.808594 17.886719 -34.507812 15.027344 -34.46875 C 10.304688 -34.40625 5.917969 -34.078125 3.144531 -32.441406 C 1.5625 -31.488281 0.246094 -30.339844 0.28125 -28.011719 C 0.304688 -26.148438 1.113281 -25.363281 2.324219 -24.449219 C 3.265625 -23.730469 3.691406 -21.804688 3.714844 -20.011719 L 3.785156 -14.953125 C 3.847656 -10.5 3.546875 -8.164062 2.492188 -7.351562 C 1.308594 -6.472656 0.726562 -5.332031 0.746094 -3.734375 C 0.796875 -0.210938 2.867188 0.425781 9.320312 0.335938 Z M 9.320312 0.335938 "/></g></g></g><g fill="#f57fb4" fill-opacity="1"><g transform="translate(146.024429, 196.863802)"><g><path d="M 24.625 0.527344 C 35.796875 0.371094 42.808594 -7.507812 42.65625 -18.617188 C 42.507812 -29.324219 37.769531 -35.25 30.121094 -35.144531 C 22.070312 -35.03125 19.976562 -27.683594 19.113281 -27.671875 C 18.714844 -27.667969 18.566406 -28.730469 18.542969 -30.394531 L 18.367188 -43.03125 C 18.320312 -46.488281 16.050781 -47.191406 13.1875 -47.152344 C 8.464844 -47.085938 4.078125 -46.761719 1.308594 -45.125 C -0.277344 -44.171875 -1.589844 -43.023438 -1.558594 -40.695312 C -1.53125 -38.832031 -0.722656 -38.042969 0.488281 -37.128906 C 1.429688 -36.410156 1.84375 -35.21875 1.878906 -32.625 L 2.179688 -15.730469 C 2.25 -10.476562 1.960938 -7.34375 1.941406 -3.820312 C 1.910156 -1.289062 3.867188 0.679688 6.996094 0.636719 C 11.917969 0.566406 12.808594 -2.371094 14.269531 -2.390625 C 15.667969 -2.410156 18.769531 0.605469 24.625 0.527344 Z M 22.574219 -8.160156 C 20.3125 -8.128906 18.8125 -10.835938 18.710938 -18.019531 L 18.699219 -19.085938 C 18.652344 -22.34375 19.898438 -23.757812 21.226562 -23.777344 C 24.355469 -23.820312 25.414062 -19.3125 25.496094 -13.257812 C 25.558594 -8.933594 23.769531 -8.179688 22.574219 -8.160156 Z M 22.574219 -8.160156 "/></g></g></g><g fill="#f57fb4" fill-opacity="1"><g transform="translate(189.591713, 196.263985)"><g><path d="M 9.320312 0.335938 L 15.304688 0.253906 C 21.691406 0.167969 23.808594 -0.527344 23.761719 -4.054688 C 23.738281 -5.648438 23.125 -6.773438 21.917969 -7.621094 C 20.839844 -8.402344 20.476562 -10.726562 20.414062 -15.25 L 20.40625 -15.847656 C 20.359375 -19.175781 20.976562 -22.710938 22.109375 -22.726562 C 22.507812 -22.730469 22.839844 -22.601562 22.851562 -21.9375 C 22.898438 -18.34375 25.925781 -16.058594 29.582031 -16.109375 C 33.707031 -16.164062 36.382812 -19.992188 36.304688 -25.714844 C 36.207031 -32.699219 31.847656 -35.167969 27.726562 -35.109375 C 21.671875 -35.027344 19.511719 -27.679688 18.714844 -27.667969 C 18.378906 -27.664062 18.304688 -28.261719 18.296875 -28.792969 L 18.269531 -30.988281 C 18.21875 -34.445312 16.558594 -34.492188 15.027344 -34.46875 C 10.304688 -34.40625 5.917969 -34.078125 3.144531 -32.441406 C 1.5625 -31.488281 0.246094 -30.339844 0.28125 -28.011719 C 0.304688 -26.148438 1.113281 -25.363281 2.324219 -24.449219 C 3.265625 -23.730469 3.691406 -21.804688 3.714844 -20.011719 L 3.785156 -14.953125 C 3.847656 -10.5 3.546875 -8.164062 2.492188 -7.351562 C 1.308594 -6.472656 0.726562 -5.332031 0.746094 -3.734375 C 0.796875 -0.210938 2.867188 0.425781 9.320312 0.335938 Z M 9.320312 0.335938 "/></g></g></g><g fill="#f57fb4" fill-opacity="1"><g transform="translate(226.241436, 195.759406)"><g><path d="M 12.515625 0.691406 C 22.160156 0.558594 23.8125 -5.183594 24.875 -5.199219 C 25.144531 -5.203125 25.753906 -4.214844 25.960938 -3.75 C 27.191406 -1.503906 29.675781 0.191406 34 0.128906 C 39.253906 0.0585938 42.273438 -2.976562 42.222656 -6.570312 C 42.207031 -7.632812 41.933594 -8.292969 41.527344 -8.820312 C 41.050781 -9.414062 40.316406 -9.734375 39.773438 -10.394531 C 39.371094 -10.789062 39.027344 -11.382812 38.949219 -12.378906 L 37.957031 -21.480469 C 37.121094 -29.183594 33.644531 -35.191406 20.875 -35.015625 C 11.761719 -34.890625 2.425781 -31.5 2.507812 -25.582031 C 2.550781 -22.65625 5.4375 -20.699219 7.699219 -20.730469 C 11.554688 -20.78125 13.464844 -22.40625 14.695312 -24.683594 C 15.539062 -26.226562 16.261719 -26.902344 17.992188 -26.925781 C 19.789062 -26.949219 20.867188 -25.902344 21.238281 -23.179688 L 21.308594 -22.648438 C 21.605469 -20.65625 18.804688 -20.949219 15.949219 -20.644531 C 7.578125 -19.730469 0.0976562 -17.097656 0.195312 -9.847656 C 0.261719 -5.058594 2.871094 0.824219 12.515625 0.691406 Z M 20.386719 -7.664062 C 19.121094 -7.648438 16.976562 -8.949219 16.925781 -12.472656 C 16.894531 -14.734375 17.402344 -16.671875 19.863281 -16.707031 C 21.125 -16.722656 22.132812 -16.003906 22.355469 -14.277344 L 22.796875 -11.292969 C 23.089844 -9.300781 21.914062 -7.6875 20.386719 -7.664062 Z M 20.386719 -7.664062 "/></g></g></g><g fill="#f57fb4" fill-opacity="1"><g transform="translate(268.544939, 195.176988)"><g><path d="M 17.574219 0.621094 C 28.082031 0.476562 35.820312 -2.820312 35.707031 -10.9375 C 35.632812 -16.390625 33.191406 -19.75 23.972656 -22.550781 C 20.164062 -23.695312 19.691406 -24.222656 19.675781 -25.351562 C 19.671875 -25.75 20.058594 -26.488281 20.859375 -26.5 C 22.253906 -26.519531 23.199219 -25.667969 24.34375 -24.683594 C 25.621094 -23.570312 27.105469 -22.261719 29.699219 -22.296875 C 32.625 -22.335938 34.058594 -24.617188 34.027344 -26.878906 C 34 -28.808594 33.113281 -30.394531 31.496094 -31.703125 C 30.019531 -32.8125 28.078125 -33.652344 25.675781 -34.21875 C 23.339844 -34.785156 20.609375 -35.011719 17.746094 -34.972656 C 10.230469 -34.871094 1.101562 -31.085938 1.214844 -23.035156 C 1.285156 -17.714844 4.726562 -14.234375 12.078125 -11.875 C 15.484375 -10.792969 16.089844 -10.335938 16.105469 -9.269531 C 16.117188 -8.339844 15.527344 -7.863281 14.394531 -7.847656 C 12 -7.816406 10.785156 -8.996094 9.570312 -10.246094 C 8.222656 -11.621094 6.738281 -13 3.613281 -12.957031 C 1.550781 -12.929688 -0.152344 -11.109375 -0.117188 -8.449219 C -0.0820312 -5.921875 1.277344 -3.941406 3.492188 -2.507812 C 4.96875 -1.53125 6.773438 -0.824219 8.777344 -0.320312 C 11.449219 0.375 14.511719 0.664062 17.574219 0.621094 Z M 17.574219 0.621094 "/></g></g></g><g fill="#fcfcfc" fill-opacity="1"><g transform="translate(92.945901, 197.594566)"><g><path d="M 6.519531 -0.0234375 L 18.757812 -0.191406 C 24.414062 -0.269531 25.324219 -1.613281 25.285156 -4.40625 C 25.261719 -6.335938 24.652344 -6.992188 22.910156 -7.832031 C 21.4375 -8.542969 21.355469 -9.675781 21.277344 -15.394531 L 21.257812 -16.726562 C 21.242188 -18.054688 21.621094 -19.324219 23.085938 -19.34375 L 23.949219 -19.355469 C 25.414062 -19.378906 25.621094 -18.78125 25.761719 -18.25 C 26.390625 -16.0625 27.46875 -15.082031 29.730469 -15.113281 C 32.789062 -15.15625 34.164062 -16.902344 32.925781 -24.738281 C 31.832031 -31.507812 30.820312 -32.558594 28.359375 -32.523438 C 25.898438 -32.492188 24.519531 -31.140625 24.417969 -28.8125 C 24.371094 -27.414062 24.046875 -26.808594 22.917969 -26.792969 L 22.183594 -26.785156 C 21.453125 -26.773438 21.113281 -27.167969 21.109375 -27.699219 L 20.992188 -36.015625 C 20.964844 -38.144531 21.960938 -38.289062 23.890625 -38.316406 L 26.285156 -38.351562 C 29.476562 -38.394531 31.089844 -37.21875 32.996094 -33.984375 C 34.085938 -32.203125 35.242188 -30.421875 38.234375 -30.464844 C 43.023438 -30.53125 42.957031 -35.386719 41.671875 -41.753906 C 40.667969 -46.863281 38.789062 -48.101562 36.328125 -48.070312 C 32.46875 -48.015625 32.019531 -47.011719 25.699219 -46.925781 C 9.003906 -46.628906 7.605469 -46.675781 5.8125 -46.652344 C 1.621094 -46.59375 0.109375 -45.308594 0.148438 -42.515625 C 0.171875 -40.652344 0.78125 -39.863281 1.855469 -39.078125 C 3.066406 -38.164062 3.410156 -37.304688 3.5 -30.785156 L 3.707031 -15.886719 C 3.796875 -9.367188 3.476562 -8.496094 2.292969 -7.550781 C 1.238281 -6.738281 0.652344 -5.730469 0.675781 -4.066406 C 0.714844 -1.273438 2.328125 0.0351562 6.519531 -0.0234375 Z M 6.519531 -0.0234375 "/></g></g></g><g fill="#fcfcfc" fill-opacity="1"><g transform="translate(136.04758, 197.00116)"><g><path d="M 9.386719 0.335938 L 15.371094 0.253906 C 21.757812 0.167969 23.875 -0.527344 23.828125 -4.054688 C 23.804688 -5.648438 23.191406 -6.773438 21.984375 -7.621094 C 20.90625 -8.40625 20.542969 -10.726562 20.480469 -15.25 L 20.097656 -43.054688 C 20.050781 -46.515625 17.710938 -47.214844 14.851562 -47.175781 C 10.128906 -47.109375 5.742188 -46.78125 2.972656 -45.148438 C 1.386719 -44.195312 0.0742188 -43.046875 0.105469 -40.71875 C 0.128906 -38.855469 0.941406 -38.066406 2.148438 -37.152344 C 3.089844 -36.433594 3.515625 -34.511719 3.542969 -32.714844 L 3.785156 -14.953125 C 3.847656 -10.5 3.613281 -8.167969 2.558594 -7.351562 C 1.375 -6.472656 0.792969 -5.332031 0.8125 -3.738281 C 0.863281 -0.210938 2.933594 0.425781 9.386719 0.335938 Z M 9.386719 0.335938 "/></g></g></g><g fill="#fcfcfc" fill-opacity="1"><g transform="translate(160.59159, 196.663247)"><g><path d="M 12.515625 0.691406 C 22.160156 0.558594 23.8125 -5.183594 24.875 -5.199219 C 25.144531 -5.203125 25.753906 -4.214844 25.960938 -3.75 C 27.191406 -1.503906 29.675781 0.191406 34 0.128906 C 39.253906 0.0585938 42.273438 -2.976562 42.222656 -6.570312 C 42.207031 -7.632812 41.933594 -8.292969 41.527344 -8.820312 C 41.050781 -9.414062 40.316406 -9.734375 39.773438 -10.394531 C 39.371094 -10.789062 39.027344 -11.382812 38.949219 -12.378906 L 37.957031 -21.480469 C 37.121094 -29.183594 33.644531 -35.191406 20.875 -35.015625 C 11.761719 -34.890625 2.425781 -31.5 2.507812 -25.582031 C 2.550781 -22.65625 5.4375 -20.699219 7.699219 -20.730469 C 11.554688 -20.78125 13.464844 -22.40625 14.695312 -24.683594 C 15.539062 -26.226562 16.261719 -26.902344 17.992188 -26.925781 C 19.789062 -26.949219 20.867188 -25.902344 21.238281 -23.179688 L 21.308594 -22.648438 C 21.605469 -20.65625 18.804688 -20.949219 15.949219 -20.644531 C 7.578125 -19.730469 0.0976562 -17.097656 0.195312 -9.847656 C 0.261719 -5.058594 2.871094 0.824219 12.515625 0.691406 Z M 20.386719 -7.664062 C 19.121094 -7.648438 16.976562 -8.949219 16.925781 -12.472656 C 16.894531 -14.734375 17.402344 -16.671875 19.863281 -16.707031 C 21.125 -16.722656 22.132812 -16.003906 22.355469 -14.277344 L 22.796875 -11.292969 C 23.089844 -9.300781 21.914062 -7.6875 20.386719 -7.664062 Z M 20.386719 -7.664062 "/></g></g></g><g fill="#fcfcfc" fill-opacity="1"><g transform="translate(202.895093, 196.080829)"><g><path d="M 20.234375 0.585938 C 31.074219 0.4375 36.980469 -5.5 36.917969 -10.222656 C 36.871094 -13.414062 34.988281 -14.851562 33.195312 -14.828125 C 31.796875 -14.808594 30.875 -14.0625 30.152344 -13.453125 C 28.378906 -11.898438 26.589844 -11.210938 24.992188 -11.1875 C 20.070312 -11.121094 17.617188 -15.410156 17.527344 -21.863281 C 17.496094 -24.191406 18.394531 -26.53125 20.257812 -26.558594 C 21.257812 -26.570312 22.261719 -26.054688 23.214844 -24.535156 C 24.847656 -21.898438 26.273438 -19.789062 30.332031 -19.84375 C 33.722656 -19.890625 35.6875 -22.046875 35.652344 -24.707031 C 35.5625 -31.226562 27.859375 -35.113281 18.8125 -34.988281 C 9.5 -34.859375 0.28125 -27.8125 0.433594 -16.703125 C 0.582031 -6.128906 8.925781 0.742188 20.234375 0.585938 Z M 20.234375 0.585938 "/></g></g></g><g fill="#fcfcfc" fill-opacity="1"><g transform="translate(240.276478, 195.566177)"><g><path d="M 12.515625 0.691406 C 22.160156 0.558594 23.8125 -5.183594 24.875 -5.199219 C 25.144531 -5.203125 25.753906 -4.214844 25.960938 -3.75 C 27.191406 -1.503906 29.675781 0.191406 34 0.128906 C 39.253906 0.0585938 42.273438 -2.976562 42.222656 -6.570312 C 42.207031 -7.632812 41.933594 -8.292969 41.527344 -8.820312 C 41.050781 -9.414062 40.316406 -9.734375 39.773438 -10.394531 C 39.371094 -10.789062 39.027344 -11.382812 38.949219 -12.378906 L 37.957031 -21.480469 C 37.121094 -29.183594 33.644531 -35.191406 20.875 -35.015625 C 11.761719 -34.890625 2.425781 -31.5 2.507812 -25.582031 C 2.550781 -22.65625 5.4375 -20.699219 7.699219 -20.730469 C 11.554688 -20.78125 13.464844 -22.40625 14.695312 -24.683594 C 15.539062 -26.226562 16.261719 -26.902344 17.992188 -26.925781 C 19.789062 -26.949219 20.867188 -25.902344 21.238281 -23.179688 L 21.308594 -22.648438 C 21.605469 -20.65625 18.804688 -20.949219 15.949219 -20.644531 C 7.578125 -19.730469 0.0976562 -17.097656 0.195312 -9.847656 C 0.261719 -5.058594 2.871094 0.824219 12.515625 0.691406 Z M 20.386719 -7.664062 C 19.121094 -7.648438 16.976562 -8.949219 16.925781 -12.472656 C 16.894531 -14.734375 17.402344 -16.671875 19.863281 -16.707031 C 21.125 -16.722656 22.132812 -16.003906 22.355469 -14.277344 L 22.796875 -11.292969 C 23.089844 -9.300781 21.914062 -7.6875 20.386719 -7.664062 Z M 20.386719 -7.664062 "/></g></g></g><g clip-path="url(#559d94a7c4)"><path fill="#fcfcfc" d="M 83.191406 136.363281 C 83.191406 136.363281 82.363281 139.167969 81.453125 140.074219 C 80.546875 140.984375 77.742188 141.8125 77.742188 141.8125 C 77.742188 141.8125 80.546875 142.640625 81.453125 143.550781 C 82.363281 144.457031 83.191406 147.261719 83.191406 147.261719 C 83.191406 147.261719 84.019531 144.457031 84.929688 143.550781 C 85.835938 142.640625 88.640625 141.8125 88.640625 141.8125 C 88.640625 141.8125 85.835938 140.984375 84.929688 140.074219 C 84.019531 139.167969 83.191406 136.363281 83.191406 136.363281 Z M 59.292969 136.058594 C 59.292969 136.058594 58.039062 140.3125 56.660156 141.691406 C 55.28125 143.066406 51.027344 144.324219 51.027344 144.324219 C 51.027344 144.324219 55.28125 145.582031 56.660156 146.960938 C 58.039062 148.335938 59.292969 152.589844 59.292969 152.589844 C 59.292969 152.589844 60.550781 148.335938 61.929688 146.960938 C 63.308594 145.582031 67.5625 144.324219 67.5625 144.324219 C 67.5625 144.324219 63.308594 143.066406 61.929688 141.691406 C 60.550781 140.3125 59.292969 136.058594 59.292969 136.058594 Z M 71.972656 114.179688 C 71.972656 114.179688 70.046875 120.707031 67.933594 122.820312 C 65.820312 124.933594 59.292969 126.859375 59.292969 126.859375 C 59.292969 126.859375 65.820312 128.789062 67.933594 130.902344 C 70.046875 133.015625 71.972656 139.539062 71.972656 139.539062 C 71.972656 139.539062 73.902344 133.015625 76.015625 130.902344 C 78.128906 128.789062 84.652344 126.859375 84.652344 126.859375 C 84.652344 126.859375 78.128906 124.933594 76.015625 122.820312 C 73.902344 120.707031 71.972656 114.179688 71.972656 114.179688 " fill-opacity="1" fill-rule="evenodd"/></g><g clip-path="url(#985bf9d7c8)"><path fill="#fcfcfc" d="M 345.304688 165.589844 C 345.304688 165.589844 344.476562 168.394531 343.570312 169.304688 C 342.660156 170.214844 339.855469 171.042969 339.855469 171.042969 C 339.855469 171.042969 342.660156 171.871094 343.570312 172.777344 C 344.476562 173.6875 345.304688 176.492188 345.304688 176.492188 C 345.304688 176.492188 346.132812 173.6875 347.042969 172.777344 C 347.953125 171.871094 350.757812 171.042969 350.757812 171.042969 C 350.757812 171.042969 347.953125 170.214844 347.042969 169.304688 C 346.132812 168.394531 345.304688 165.589844 345.304688 165.589844 Z M 321.410156 165.289062 C 321.410156 165.289062 320.152344 169.542969 318.773438 170.917969 C 317.398438 172.296875 313.140625 173.554688 313.140625 173.554688 C 313.140625 173.554688 317.398438 174.8125 318.773438 176.1875 C 320.152344 177.566406 321.410156 181.820312 321.410156 181.820312 C 321.410156 181.820312 322.664062 177.566406 324.042969 176.1875 C 325.421875 174.8125 329.675781 173.554688 329.675781 173.554688 C 329.675781 173.554688 325.421875 172.296875 324.042969 170.917969 C 322.664062 169.542969 321.410156 165.289062 321.410156 165.289062 Z M 334.089844 143.410156 C 334.089844 143.410156 332.160156 149.9375 330.046875 152.050781 C 327.933594 154.164062 321.410156 156.089844 321.410156 156.089844 C 321.410156 156.089844 327.933594 158.019531 330.046875 160.132812 C 332.160156 162.246094 334.089844 168.769531 334.089844 168.769531 C 334.089844 168.769531 336.015625 162.246094 338.128906 160.132812 C 340.242188 158.019531 346.769531 156.089844 346.769531 156.089844 C 346.769531 156.089844 340.242188 154.164062 338.128906 152.050781 C 336.015625 149.9375 334.089844 143.410156 334.089844 143.410156 " fill-opacity="1" fill-rule="evenodd"/></g><g clip-path="url(#112f0ba512)"><path fill="#e8297b" d="M 350.167969 147.035156 C 350.167969 145.113281 348.613281 143.558594 346.695312 143.558594 C 345.527344 143.558594 344.5 144.132812 343.867188 145.011719 C 343.238281 144.132812 342.210938 143.558594 341.042969 143.558594 C 339.125 143.558594 337.566406 145.113281 337.566406 147.035156 C 337.566406 147.308594 337.601562 147.570312 337.660156 147.824219 C 338.144531 150.824219 341.480469 153.988281 343.867188 154.855469 C 346.257812 153.988281 349.59375 150.824219 350.074219 147.824219 C 350.136719 147.570312 350.167969 147.308594 350.167969 147.035156 Z M 350.167969 147.035156 " fill-opacity="1" fill-rule="nonzero"/></g><path fill="#e8297b" d="M 348.597656 147.578125 C 348.597656 146.136719 347.429688 144.96875 345.988281 144.96875 C 345.113281 144.96875 344.34375 145.398438 343.867188 146.058594 C 343.394531 145.398438 342.625 144.96875 341.75 144.96875 C 340.308594 144.96875 339.140625 146.136719 339.140625 147.578125 C 339.140625 147.78125 339.167969 147.980469 339.210938 148.167969 C 339.574219 150.417969 342.074219 152.796875 343.867188 153.445312 C 345.664062 152.792969 348.164062 150.417969 348.527344 148.167969 C 348.570312 147.980469 348.597656 147.78125 348.597656 147.578125 Z M 348.597656 147.578125 " fill-opacity="1" fill-rule="nonzero"/><path fill="#e8297b" d="M 347.105469 148.089844 C 347.105469 147.105469 346.308594 146.304688 345.320312 146.304688 C 344.722656 146.304688 344.195312 146.597656 343.867188 147.050781 C 343.546875 146.597656 343.015625 146.304688 342.417969 146.304688 C 341.429688 146.304688 340.628906 147.105469 340.628906 148.089844 C 340.628906 148.230469 340.648438 148.367188 340.679688 148.496094 C 340.925781 150.039062 342.640625 151.664062 343.867188 152.109375 C 345.097656 151.664062 346.8125 150.039062 347.058594 148.496094 C 347.089844 148.367188 347.105469 148.230469 347.105469 148.089844 Z M 347.105469 148.089844 " fill-opacity="1" fill-rule="nonzero"/><g clip-path="url(#8a38c49e09)"><path fill="#e8297b" d="M 343.796875 198.675781 C 343.796875 196.753906 342.238281 195.199219 340.320312 195.199219 C 339.15625 195.199219 338.125 195.773438 337.496094 196.652344 C 336.863281 195.773438 335.835938 195.199219 334.671875 195.199219 C 332.75 195.199219 331.195312 196.753906 331.195312 198.675781 C 331.195312 198.945312 331.230469 199.210938 331.289062 199.464844 C 331.769531 202.464844 335.105469 205.628906 337.496094 206.496094 C 339.886719 205.628906 343.21875 202.464844 343.703125 199.464844 C 343.761719 199.210938 343.796875 198.945312 343.796875 198.675781 Z M 343.796875 198.675781 " fill-opacity="1" fill-rule="nonzero"/></g><path fill="#e8297b" d="M 342.222656 199.214844 C 342.222656 197.777344 341.058594 196.609375 339.617188 196.609375 C 338.742188 196.609375 337.96875 197.039062 337.496094 197.699219 C 337.023438 197.039062 336.25 196.609375 335.375 196.609375 C 333.933594 196.609375 332.765625 197.777344 332.765625 199.214844 C 332.765625 199.421875 332.792969 199.617188 332.835938 199.808594 C 333.199219 202.058594 335.703125 204.433594 337.496094 205.085938 C 339.289062 204.433594 341.792969 202.058594 342.152344 199.808594 C 342.199219 199.617188 342.222656 199.421875 342.222656 199.214844 Z M 342.222656 199.214844 " fill-opacity="1" fill-rule="nonzero"/><path fill="#e8297b" d="M 340.734375 199.730469 C 340.734375 198.742188 339.933594 197.945312 338.949219 197.945312 C 338.347656 197.945312 337.820312 198.238281 337.496094 198.691406 C 337.171875 198.238281 336.644531 197.945312 336.042969 197.945312 C 335.058594 197.945312 334.257812 198.742188 334.257812 199.730469 C 334.257812 199.871094 334.273438 200.007812 334.304688 200.136719 C 334.554688 201.679688 336.265625 203.304688 337.496094 203.75 C 338.722656 203.304688 340.4375 201.675781 340.683594 200.136719 C 340.714844 200.007812 340.734375 199.871094 340.734375 199.730469 Z M 340.734375 199.730469 " fill-opacity="1" fill-rule="nonzero"/><g clip-path="url(#54216d39fa)"><path fill="#e8297b" d="M 50.953125 174 C 50.953125 172.082031 49.394531 170.523438 47.476562 170.523438 C 46.308594 170.523438 45.28125 171.101562 44.652344 171.980469 C 44.019531 171.101562 42.992188 170.523438 41.828125 170.523438 C 39.90625 170.523438 38.351562 172.082031 38.351562 174 C 38.351562 174.273438 38.382812 174.539062 38.445312 174.792969 C 38.925781 177.789062 42.261719 180.953125 44.652344 181.824219 C 47.039062 180.953125 50.375 177.789062 50.855469 174.792969 C 50.917969 174.539062 50.953125 174.273438 50.953125 174 Z M 50.953125 174 " fill-opacity="1" fill-rule="nonzero"/></g><path fill="#e8297b" d="M 49.378906 174.542969 C 49.378906 173.101562 48.210938 171.933594 46.769531 171.933594 C 45.894531 171.933594 45.125 172.367188 44.652344 173.027344 C 44.175781 172.367188 43.40625 171.933594 42.53125 171.933594 C 41.089844 171.933594 39.921875 173.101562 39.921875 174.542969 C 39.921875 174.746094 39.949219 174.945312 39.992188 175.136719 C 40.355469 177.386719 42.855469 179.761719 44.652344 180.414062 C 46.445312 179.761719 48.945312 177.386719 49.308594 175.136719 C 49.355469 174.945312 49.378906 174.746094 49.378906 174.542969 Z M 49.378906 174.542969 " fill-opacity="1" fill-rule="nonzero"/><path fill="#e8297b" d="M 47.886719 175.058594 C 47.886719 174.070312 47.089844 173.269531 46.101562 173.269531 C 45.503906 173.269531 44.976562 173.566406 44.652344 174.019531 C 44.328125 173.566406 43.796875 173.269531 43.199219 173.269531 C 42.210938 173.269531 41.410156 174.070312 41.410156 175.058594 C 41.410156 175.199219 41.429688 175.332031 41.460938 175.464844 C 41.707031 177.003906 43.421875 178.632812 44.648438 179.078125 C 45.878906 178.628906 47.59375 177.003906 47.839844 175.464844 C 47.871094 175.332031 47.886719 175.199219 47.886719 175.058594 Z M 47.886719 175.058594 " fill-opacity="1" fill-rule="nonzero"/><g clip-path="url(#7985b4507c)"><path fill="#fcfcfc" d="M 94.496094 184.609375 C 94.496094 184.609375 93.667969 187.414062 92.757812 188.324219 C 91.851562 189.230469 89.046875 190.058594 89.046875 190.058594 C 89.046875 190.058594 91.851562 190.886719 92.757812 191.796875 C 93.667969 192.707031 94.496094 195.511719 94.496094 195.511719 C 94.496094 195.511719 95.324219 192.707031 96.234375 191.796875 C 97.140625 190.886719 99.945312 190.058594 99.945312 190.058594 C 99.945312 190.058594 97.140625 189.230469 96.234375 188.324219 C 95.324219 187.414062 94.496094 184.609375 94.496094 184.609375 Z M 70.597656 184.304688 C 70.597656 184.304688 69.34375 188.558594 67.964844 189.9375 C 66.585938 191.316406 62.332031 192.570312 62.332031 192.570312 C 62.332031 192.570312 66.585938 193.828125 67.964844 195.207031 C 69.34375 196.585938 70.597656 200.839844 70.597656 200.839844 C 70.597656 200.839844 71.855469 196.585938 73.234375 195.207031 C 74.609375 193.828125 78.863281 192.570312 78.863281 192.570312 C 78.863281 192.570312 74.609375 191.316406 73.234375 189.9375 C 71.855469 188.558594 70.597656 184.304688 70.597656 184.304688 Z M 83.277344 162.429688 C 83.277344 162.429688 81.351562 168.953125 79.238281 171.066406 C 77.125 173.179688 70.597656 175.109375 70.597656 175.109375 C 70.597656 175.109375 77.125 177.035156 79.238281 179.148438 C 81.351562 181.261719 83.277344 187.789062 83.277344 187.789062 C 83.277344 187.789062 85.207031 181.261719 87.320312 179.148438 C 89.433594 177.035156 95.957031 175.109375 95.957031 175.109375 C 95.957031 175.109375 89.433594 173.179688 87.320312 171.066406 C 85.207031 168.953125 83.277344 162.429688 83.277344 162.429688 " fill-opacity="1" fill-rule="evenodd"/></g><g fill="#fcfcfc" fill-opacity="1"><g transform="translate(150.916688, 224.209971)"><g><path d="M 3.1875 -1.984375 L 7.046875 -2.03125 L 7.078125 -0.09375 L 0.90625 -0.015625 L 0.78125 -9.109375 L 3.09375 -9.140625 Z M 3.1875 -1.984375 "/></g></g></g><g fill="#fcfcfc" fill-opacity="1"><g transform="translate(162.509388, 224.050376)"><g><path d="M 6.9375 -1.765625 L 2.96875 -1.71875 L 2.3125 -0.03125 L -0.0625 0 L 3.734375 -9.140625 L 6.109375 -9.171875 L 10.078125 -0.140625 L 7.609375 -0.109375 Z M 6.234375 -3.53125 L 4.890625 -6.859375 L 3.609375 -3.484375 Z M 6.234375 -3.53125 "/></g></g></g><g fill="#fcfcfc" fill-opacity="1"><g transform="translate(176.831018, 223.85322)"><g><path d="M 9.3125 -0.125 L 7.265625 -0.09375 L 3 -5.65625 L 3.078125 -0.046875 L 0.90625 -0.015625 L 0.78125 -9.109375 L 2.828125 -9.140625 L 7.109375 -3.578125 L 7.03125 -9.1875 L 9.1875 -9.21875 Z M 9.3125 -0.125 "/></g></g></g><g fill="#fcfcfc" fill-opacity="1"><g transform="translate(191.36054, 223.653168)"><g><path d="M 7.9375 -7.390625 L 3.125 -7.328125 L 3.140625 -5.515625 L 7.484375 -5.578125 L 7.515625 -3.765625 L 3.171875 -3.703125 L 3.1875 -1.859375 L 8.140625 -1.921875 L 8.171875 -0.109375 L 0.90625 -0.015625 L 0.78125 -9.109375 L 7.90625 -9.203125 Z M 7.9375 -7.390625 "/></g></g></g><g fill="#fcfcfc" fill-opacity="1"><g transform="translate(204.434664, 223.473154)"><g><path d="M 6.390625 -0.09375 L 5.015625 -2.625 L 4.953125 -2.625 L 3.1875 -2.609375 L 3.21875 -0.046875 L 0.90625 -0.015625 L 0.78125 -9.109375 L 4.859375 -9.15625 C 6.054688 -9.175781 6.988281 -8.914062 7.65625 -8.375 C 8.320312 -7.84375 8.664062 -7.066406 8.6875 -6.046875 C 8.707031 -4.648438 8.164062 -3.664062 7.0625 -3.09375 L 9.015625 -0.125 Z M 3.15625 -4.421875 L 4.921875 -4.4375 C 5.421875 -4.445312 5.804688 -4.582031 6.078125 -4.84375 C 6.347656 -5.101562 6.484375 -5.46875 6.484375 -5.9375 C 6.472656 -6.40625 6.328125 -6.757812 6.046875 -7 C 5.773438 -7.238281 5.390625 -7.351562 4.890625 -7.34375 L 3.125 -7.328125 Z M 3.15625 -4.421875 "/></g></g></g><g fill="#fcfcfc" fill-opacity="1"><g transform="translate(218.158535, 223.284219)"><g><path d="M 3.21875 -0.046875 L 0.90625 -0.015625 L 0.78125 -9.109375 L 3.09375 -9.140625 Z M 3.21875 -0.046875 "/></g></g></g><g fill="#fcfcfc" fill-opacity="1"><g transform="translate(226.606508, 223.167924)"><g><path d="M 6.9375 -1.765625 L 2.96875 -1.71875 L 2.3125 -0.03125 L -0.0625 0 L 3.734375 -9.140625 L 6.109375 -9.171875 L 10.078125 -0.140625 L 7.609375 -0.109375 Z M 6.234375 -3.53125 L 4.890625 -6.859375 L 3.609375 -3.484375 Z M 6.234375 -3.53125 "/></g></g></g></svg>